<svg xmlns="http://www.w3.org/2000/svg" width="538" height="216" viewBox="0 0 538 216">
    <g fill="none" fill-rule="evenodd" transform="translate(0 -2)">
        <path stroke="#CECECE" d="M46 28v165h440"/>
        <text fill="#4A4A4A" font-family="Roboto-Medium, Roboto" font-size="14" font-weight="400">
            <tspan x="53.591" y="13">Duration</tspan>
        </text>
        <text fill="#4A4A4A" font-family="Roboto-Medium, Roboto" font-size="14" font-weight="400">
            <tspan x="506.233" y="194">Time</tspan>
        </text>
        <path stroke="#E8E8E8" d="M38 79.5h16M38 139.5h16M114 182v20M272 182v20M429 181v20"/>
        <circle cx="104.5" cy="116.5" r="7.5" fill="#7ED321"/>
        <circle cx="161.5" cy="79.5" r="7.5" fill="#EC4A4A"/>
        <circle cx="135.5" cy="148.5" r="7.5" fill="#7ED321"/>
        <circle cx="244.5" cy="101.5" r="7.5" fill="#7ED321"/>
        <circle cx="282.5" cy="49.5" r="7.5" fill="#7ED321"/>
        <circle cx="309.5" cy="159.5" r="7.5" fill="#7ED321"/>
        <circle cx="362.5" cy="79.5" r="7.5" fill="#7ED321"/>
        <circle cx="454.5" cy="102.5" r="7.5" fill="#EC4A4A"/>
        <circle cx="430.5" cy="57.5" r="7.5" fill="#7ED321"/>
        <circle cx="439.5" cy="156.5" r="7.5" fill="#7ED321"/>
        <text fill="#4A4A4A" font-family="Roboto-Regular, Roboto" font-size="10">
            <tspan x=".217" y="84">0.2ms</tspan>
        </text>
        <text fill="#4A4A4A" font-family="Roboto-Regular, Roboto" font-size="10">
            <tspan x=".217" y="143">0.1ms</tspan>
        </text>
        <text fill="#4A4A4A" font-family="Roboto-Regular, Roboto" font-size="10">
            <tspan x="88.09" y="215">02:05:00pm</tspan>
        </text>
        <text fill="#4A4A4A" font-family="Roboto-Regular, Roboto" font-size="10">
            <tspan x="247.09" y="215">02:15:00pm</tspan>
        </text>
        <text fill="#4A4A4A" font-family="Roboto-Regular, Roboto" font-size="10">
            <tspan x="405.09" y="215">02:25:00pm</tspan>
        </text>
    </g>
</svg>
